<?xml version="1.0" encoding="UTF-8" standalone="no"?>
<svg
   xmlns:dc="http://purl.org/dc/elements/1.1/"
   xmlns:cc="http://creativecommons.org/ns#"
   xmlns:rdf="http://www.w3.org/1999/02/22-rdf-syntax-ns#"
   xmlns:svg="http://www.w3.org/2000/svg"
   xmlns="http://www.w3.org/2000/svg"
   version="1.1"
   id="svg4198"
   viewBox="0 0 136.49289 99.324867"
   height="28.031685mm"
   width="38.521328mm">
  <defs
     id="defs4200" />
  <metadata
     id="metadata4203">
    <rdf:RDF>
      <cc:Work
         rdf:about="">
        <dc:format>image/svg+xml</dc:format>
        <dc:type
           rdf:resource="http://purl.org/dc/dcmitype/StillImage" />
        <dc:title></dc:title>
      </cc:Work>
    </rdf:RDF>
  </metadata>
  <g
     transform="translate(-508.8964,-682.69977)"
     id="layer1">
    <g
       style="opacity:1"
       transform="matrix(0.2629394,-0.03452061,0.03452061,0.2629394,508.08517,698.49036)"
       id="g4181">
      <rect
         style="fill:#ffffff"
         height="206.70799"
         width="476.17801"
         y="81.181999"
         x="2.2288022"
         id="rect8591" />
      <path
         id="path8589"
         d="M 19.741,319.875 C 13.294,317.396 5.821,310.314 2.463,303.5 L 0,298.5 0,161 0,23.5 2.463,18.5 C 5.921,11.483 13.281,4.6 20.026,2.076 L 25.575,0 241.5,0 l 215.925,0 5.729,2.143 c 6.885,2.577 14.468,9.714 17.659,16.623 L 483,23.5 l 0,137.5 0,137.5 -2.188,4.734 c -3.191,6.908 -10.774,14.046 -17.659,16.622 L 457.425,322 241.212,321.947 C 26.721,321.896 24.958,321.88 19.741,319.875 Z M 477.5,182.5 l 0,-96.5 -236,0 -236,0 0,96.5 0,96.5 236,0 236,0 z"
         style="fill:#df3b3d;fill-opacity:1" />
      <path
         id="path8587"
         d="m 379.639,265 c -1.873,-1.391 -5.273,-20.122 -6.714,-36.988 -0.647,-7.576 -1.032,-8.775 -3.575,-11.152 -4.113,-3.842 -3.394,-8.859 1.271,-8.859 1.8,0 2.702,-2.6 3.348,-9.652 1.154,-12.598 5.453,-29.24 9.762,-37.792 4.933,-9.79 17.604,-20.556 24.193,-20.556 2.16,0 7.962,1.887 15.077,4.903 1.1,0.466 3.263,1.356 4.807,1.977 1.945,0.782 3.539,2.74 5.189,6.375 4.351,9.583 4.21,21.509 -0.396,33.771 -4.072,10.839 -25.272,30.295 -36.008,33.046 l -5.093,1.305 0.03,9.562 c 0.038,11.861 1.454,23.145 3.613,28.799 0.904,2.368 1.317,4.634 0.917,5.034 -0.812,0.811 -15.363,1.012 -16.421,0.227 l 0,0 z m 22.281,-68.055 c 4.139,-3.931 8.612,-9.322 10.104,-12.174 3.11,-5.947 4.668,-15.086 3.82,-22.415 -0.936,-8.095 -1.791,-8.556 -6.326,-3.405 -6.943,7.886 -10.567,16.4 -14.491,34.049 -0.917,4.125 -1.892,8.287 -2.165,9.25 -0.925,3.257 1.605,1.775 9.058,-5.305 l 0,0 z m -126.214,14.45 c -0.645,-10.191 -1.392,-18.886 -1.661,-19.321 -0.269,-0.435 -3.977,-1.108 -8.239,-1.495 -8.765,-0.794 -10.306,-1.638 -10.306,-5.645 0,-4.483 3.211,-6.07 10.729,-5.3 l 6.271,0.643 -0.044,-3.888 c -0.024,-2.139 -0.474,-7.264 -0.999,-11.389 -3.847,-30.209 -4.564,-51.643 -1.959,-58.496 0.8,-2.104 1.6,-2.504 5.01,-2.504 3.925,0 13.14,3.812 14.488,5.994 0.497,0.804 1.334,30.703 1.639,58.506 0.019,1.65 -0.28,4.463 -0.664,6.25 -0.62,2.888 -0.454,3.25 1.487,3.25 1.795,0 2.128,-0.49 1.863,-2.75 -0.273,-2.339 0.08,-2.797 2.367,-3.061 2.154,-0.248 4.037,0.986 9.464,6.203 3.726,3.582 6.445,6.843 6.042,7.246 -1.521,1.521 -8.364,3.332 -12.694,3.359 -9.575,0.062 -8.978,-1.355 -8.413,19.984 0.562,21.289 1.143,19.828 -8.148,20.549 l -5.062,0.393 -1.171,-18.528 z M 128.551,224.25 c -0.652,-2.612 -2.276,-7.225 -3.609,-10.25 -2.604,-5.909 -5.962,-17.07 -9.479,-31.5 -1.206,-4.95 -2.55,-9.657 -2.985,-10.46 -1.124,-2.073 -1.793,4.485 -2.392,23.46 -0.278,8.8 -1.103,18.025 -1.832,20.5 l -1.327,4.5 -9.877,0.914 -9.877,0.913 -2.215,-2.778 c -1.219,-1.528 -5.038,-7.459 -8.488,-13.179 -3.45,-5.72 -6.396,-10.276 -6.548,-10.124 -0.152,0.151 0.306,4.505 1.017,9.674 0.71,5.169 1.089,10.176 0.84,11.127 -0.684,2.613 -10.112,6.318 -15.675,6.161 -4.62,-0.132 -5.603,-2.047 -7.073,-13.796 -2.51,-20.038 -2.733,-24.686 -2.015,-41.923 l 0.714,-17.136 4.399,-1.177 c 7.084,-1.895 14.965,-1.53 17.128,0.792 1.008,1.083 5.843,9.745 10.743,19.25 l 8.91,17.281 1.262,-9.5 c 1.859,-14.001 7.398,-32.745 12.171,-41.184 l 1.875,-3.316 8.83,0.216 c 7.265,0.178 9.179,0.565 10.798,2.184 2.509,2.509 7.247,20.448 14.217,53.822 0.829,3.974 2.167,9.093 2.974,11.377 0.806,2.283 1.465,4.981 1.465,5.995 0,1.014 1.125,5.29 2.5,9.502 2.527,7.743 3.042,10.278 1.842,9.079 -0.362,-0.362 -1.263,-0.156 -2.003,0.457 -1.066,0.885 -11.589,3.672 -14.471,3.832 -0.348,0.021 -1.167,-2.101 -1.819,-4.713 l 0,0 z m 40.64,2.652 c -4.748,-1.117 -6.812,-2.21 -13.545,-7.173 -7.69,-5.669 -8.985,-9.176 -9.134,-24.729 -0.151,-15.912 0.558,-22.838 3.197,-31.234 2.46,-7.82 8.363,-15.125 16.905,-20.916 5.157,-3.496 5.618,-3.617 10.886,-2.853 9.398,1.364 14.049,3.231 15.632,6.274 3.112,5.983 4.191,40.16 1.41,44.66 -0.992,1.605 -17.475,1.665 -22.994,0.082 -1.833,-0.525 -3.719,-0.717 -4.19,-0.426 -0.471,0.291 -0.848,3.766 -0.836,7.721 0.026,8.516 2.145,13.971 7.016,18.069 2.956,2.487 3.825,2.72 7.893,2.113 2.514,-0.375 5.726,-1.363 7.139,-2.195 3.473,-2.045 12.703,-0.232 15.845,3.112 l 2.181,2.321 -5.297,2.011 c -9.721,3.693 -23.92,5.091 -32.108,3.163 l 0,0 z m 6.499,-50.652 c 0.479,-5.789 -0.267,-16.25 -1.159,-16.25 -0.962,0 -4.891,9.448 -6.032,14.506 -0.717,3.182 -0.553,3.732 1.342,4.496 4.365,1.761 5.521,1.217 5.849,-2.752 z M 233,225.318 c -14.814,-1.886 -20.139,-4.661 -26.251,-13.686 -4.586,-6.771 -4.77,-7.324 -5.349,-16.072 -0.412,-6.244 -0.2,-10.148 0.683,-12.561 0.705,-1.925 1.99,-6.756 2.857,-10.734 3.084,-14.155 6.412,-20.266 17.096,-31.388 4.89,-5.09 6.135,-5.875 9.305,-5.855 2.013,0.012 5.62,0.912 8.019,2 2.397,1.088 4.899,1.978 5.562,1.978 0.661,0 2.246,0.973 3.522,2.162 2.249,2.096 2.299,2.501 1.62,13.229 -0.385,6.087 -1.109,11.562 -1.609,12.164 -0.501,0.603 -1.032,6.978 -1.182,14.165 l -0.272,13.07 -5.635,1.576 c -4.975,1.393 -6.495,1.413 -12.984,0.176 -8.131,-1.549 -8.839,-1.238 -8.866,3.892 -0.021,3.991 3.55,11.063 7.66,15.174 2.873,2.872 4.096,3.392 7.992,3.392 6.405,0 12.256,-1.953 14.048,-4.688 1.854,-2.828 3.798,-2.906 8.035,-0.322 5.039,3.072 4.47,6.239 -1.591,8.847 -8.502,3.656 -14.295,4.546 -22.66,3.481 l 0,0 z m -2.131,-42.568 c 0.332,-1.237 0.592,-7.2 0.577,-13.25 -0.025,-10.541 -0.092,-10.88 -1.588,-8.118 -1.922,3.548 -7.358,19.087 -7.358,21.033 0,1.666 1.496,2.397 5.133,2.506 1.922,0.058 2.797,-0.528 3.236,-2.171 l 0,0 z m 93.989,40.788 c -5.2,-3.643 -9.455,-18.87 -11.326,-40.538 -0.911,-10.551 -0.735,-16.052 0.579,-18.18 0.942,-1.523 6.308,-0.834 11.112,1.43 8.882,4.184 8.614,3.506 9.48,24.026 0.879,20.789 1.413,25.019 3.092,24.458 2.214,-0.737 10.354,-13.838 11.586,-18.647 0.676,-2.638 1.157,-9.022 1.071,-14.19 -0.087,-5.168 -0.159,-10.419 -0.16,-11.668 -0.002,-2.873 1.918,-5.229 4.26,-5.229 2.517,0 14.373,5.602 15.996,7.558 1.093,1.317 1.121,3.308 0.155,10.953 -1.261,9.983 -2.582,14.009 -5.454,16.628 -0.989,0.9 -2.836,3.601 -4.104,6 -1.269,2.398 -2.907,4.361 -3.643,4.361 -0.734,0 -1.52,0.675 -1.745,1.5 -0.364,1.334 -0.292,1.334 0.651,0 0.583,-0.825 1.061,-1.05 1.061,-0.5 0,2.203 -9.779,11.585 -13.055,12.524 -5.27,1.512 -17.125,1.217 -19.556,-0.486 l 0,0 z"
         style="fill:#030303" />
    </g>
  </g>
</svg>
