<?xml version="1.0" encoding="UTF-8" standalone="no"?>
<svg
   xmlns:dc="http://purl.org/dc/elements/1.1/"
   xmlns:cc="http://creativecommons.org/ns#"
   xmlns:rdf="http://www.w3.org/1999/02/22-rdf-syntax-ns#"
   xmlns:svg="http://www.w3.org/2000/svg"
   xmlns="http://www.w3.org/2000/svg"
   version="1.1"
   id="svg2"
   viewBox="0 0 169.99999 26.993094"
   height="7.6180511mm"
   width="47.977776mm">
  <defs
     id="defs4">
    <clipPath
       clipPathUnits="userSpaceOnUse"
       id="clipPath4176">
      <path
         d="m 0,595.28 841.89,0 L 841.89,0 0,0 0,595.28 Z"
         id="path4178" />
    </clipPath>
  </defs>
  <metadata
     id="metadata7">
    <rdf:RDF>
      <cc:Work
         rdf:about="">
        <dc:format>image/svg+xml</dc:format>
        <dc:type
           rdf:resource="http://purl.org/dc/dcmitype/StillImage" />
        <dc:title></dc:title>
      </cc:Work>
    </rdf:RDF>
  </metadata>
  <g
     transform="translate(163.46161,-209.56704)"
     id="layer1">
    <g
       transform="matrix(0.22002556,0,0,0.22002556,-127.49588,184.51086)"
       id="g4260">
      <path
         id="path4148"
         style="fill:#61c0bd;fill-opacity:1;fill-rule:nonzero;stroke:none"
         d="m -163.46161,201.03764 c 8.58496,7.57912 19.8535,12.18612 32.20462,12.18612 26.892,0 48.69338,-21.80087 48.69338,-48.69287 0,-12.35163 -4.607,-23.62213 -12.186125,-32.20513 l -17.291005,17.291 c 3.20413,4.123 5.12938,9.28863 5.12938,14.91413 0,13.44575 -10.89937,24.34512 -24.34562,24.34512 -5.625,0 -10.7905,-1.92525 -14.91363,-5.12887 l -17.291,17.2905" />
      <path
         id="path4150"
         style="fill:#585657;fill-opacity:1;fill-rule:nonzero;stroke:none"
         d="m 240.49589,128.02151 c -8.585,-7.57862 -19.85375,-12.186 -32.205,-12.186 -26.8925,0 -48.6925,21.80125 -48.6925,48.69338 0,12.3515 4.60625,23.62212 12.185,32.20512 l 17.29125,-17.29112 c -3.20375,-4.123 -5.12875,-9.2885 -5.12875,-14.914 0,-13.44575 10.89875,-24.34575 24.345,-24.34575 5.625,0 10.79125,1.92587 14.91375,5.1295 l 17.29125,-17.29113" />
      <path
         id="path4152"
         style="fill:#61c0bd;fill-opacity:1;fill-rule:nonzero;stroke:none"
         d="m 1.86839,177.59139 c 0,-19.65575 -12.2,-34.70263 -31.45125,-34.70263 -10.167375,0 -17.350875,3.92963 -22.23225,9.76025 l -0.27,0 0.13475,-8.5405 -20.6055,0 0,91.36813 21.6905,0 0,-32.94088 c 4.201625,6.23438 11.252375,9.896 21.1475,9.896 19.38625,0 31.58625,-15.18412 31.58625,-34.84037 m -22.0975,-0.27 c 0,10.30275 -6.37125,17.3515 -15.725,17.3515 -9.2175,0 -15.589,-7.04875 -15.589,-17.3515 0,-10.30275 6.3715,-17.3535 15.589,-17.3535 9.35375,0 15.725,7.05075 15.725,17.3535 m 95.435,-1.76413 c 0,-19.521 -13.6925,-32.6685 -33.48375,-32.6685 -19.7925,0 -36.06,12.60738 -36.06,34.70263 0,22.09762 15.0475,34.84037 35.6525,34.84037 20.74125,0 29.55375,-9.21825 31.72125,-10.84575 l -8.53875,-11.252 c -3.79625,2.57675 -11.3875,6.37113 -20.0625,6.37113 -8.81375,0 -16.13375,-4.33688 -17.08125,-13.96188 l 47.5825,0 c 0,0 0.27,-3.93162 0.27,-7.186 m -47.7175,-5.1495 c 0.27125,-6.373 4.88125,-13.42187 13.82625,-13.42187 9.08375,0 13.5575,7.32087 13.6925,13.42187 l -27.51875,0 z m 120.64875,1.083 c 0,-16.13175 -5.01625,-28.602 -24.4,-28.602 -9.625,0 -15.72625,4.87888 -19.385,10.84275 l -0.2725,0 0.1375,-9.623 -21.69125,0 0,66.831 21.69125,0 0,-33.07562 c 0,-9.6255 2.57375,-17.21638 11.9275,-17.21638 8.9475,0 10.3025,6.64113 10.3025,15.45213 l 0,34.83987 21.69,0 0,-39.44875" />
      <path
         id="path4154"
         style="fill:#585657;fill-opacity:1;fill-rule:nonzero;stroke:none"
         d="m 317.04964,171.49126 c 0,-16.26662 -5.01625,-28.6035 -24.4025,-28.6035 -9.895,0 -16.26625,4.88088 -19.65625,10.84475 0,0 0.135,-7.32087 0.135,-14.09912 l 0,-22.2305 -21.6875,0 0,93.53762 21.6875,0 0,-32.80562 c 0,-9.8975 2.8475,-17.48888 11.93,-17.48888 9.08375,0 10.1675,7.04888 10.1675,15.18413 l 0,35.11037 21.82625,0 0,-39.44925 z m 73.60875,1.76225 c 0,-11.2525 -2.84625,-17.75875 -7.9975,-22.63775 -5.28875,-4.88125 -12.4725,-7.728 -24.945,-7.728 -12.4725,0 -22.91,3.93113 -28.60375,6.77838 l 5.69375,14.09712 c 3.38875,-2.1675 11.93,-5.96387 20.47,-5.96387 8.67625,0 13.6925,3.65912 13.6925,10.71 l 0,1.49025 -16.81125,0.67912 c -12.335,0.5405 -26.0275,5.55663 -26.0275,20.46825 0,14.91213 12.4725,21.28325 24.265,21.28325 10.84625,0 16.26875,-5.69387 19.11625,-8.5405 l 0.405,7.05075 20.7425,0 0,-37.687 z m -21.555,19.251 c -1.355,2.30413 -5.28625,6.09863 -11.115,6.09863 -5.96625,0 -10.1675,-3.11725 -10.1675,-8.26863 0,-5.01612 3.93125,-7.86275 10.5725,-8.13325 l 10.71,-0.67925 0,10.9825 z m 80.11625,-48.397 c 0,0 -2.305,-1.21975 -6.77875,-1.21975 -7.18625,0 -12.7425,3.38913 -16.53875,10.71 l -0.2725,0 0.1375,-9.49025 -21.69,0 0,66.833 21.69,0 0,-29.689 c 0,-7.4555 1.76125,-11.79437 3.38875,-13.96187 1.625,-2.1695 5.15125,-4.88138 10.03125,-4.88138 3.79625,0 6.6425,0.94975 7.8625,1.627 l 0.9475,0 1.2225,-19.92775 z m 30.77125,-18.9785 c 0,-6.64162 -5.01625,-11.2505 -12.3375,-11.2505 -7.31875,0 -12.335,4.60888 -12.335,11.2505 0,6.77825 5.01625,11.25238 12.335,11.25238 7.32125,0 12.3375,-4.47413 12.3375,-11.25238 m -1.4925,18.9785 -21.69,0 0,66.8305 21.69,0 0,-66.8305 z m 54.49375,0.13475 -14.775,0 0,-18.16362 -21.825,0 0,18.16362 -9.49,0 0,16.40375 9.49,0 0,25.89213 c 0,10.168 1.355,15.72662 4.74375,19.65625 3.39,3.93162 8.54125,6.23587 16.2675,6.23587 7.8625,0 13.82625,-1.76225 15.45375,-2.1675 l -1.085,-16.94575 c 0,0 -3.11625,1.21963 -6.50625,1.21963 -2.84625,0 -4.20125,-0.54238 -5.15125,-1.62688 -1.085,-1.22025 -1.8975,-2.57525 -1.8975,-8.26862 l 0,-23.99513 14.775,0 0,-16.40375 z m 53.81625,-0.13475 -15.04625,42.97313 -15.1825,-42.97313 -22.64,0 26.435,64.79838 -2.44,5.829 c -1.7625,4.33887 -4.06625,4.33887 -6.50625,4.33887 -3.25375,0 -7.99875,-1.76212 -7.99875,-1.76212 l -4.33875,15.99655 c 0,0 7.18625,3.25195 18.57375,3.25195 11.385,0 16.80875,-7.31885 21.68875,-19.2485 l 29.8225,-73.20413 -22.3675,0" />
    </g>
  </g>
</svg>
