<?xml version="1.0" encoding="UTF-8" standalone="no"?>
<svg
   xmlns:dc="http://purl.org/dc/elements/1.1/"
   xmlns:cc="http://creativecommons.org/ns#"
   xmlns:rdf="http://www.w3.org/1999/02/22-rdf-syntax-ns#"
   xmlns:svg="http://www.w3.org/2000/svg"
   xmlns="http://www.w3.org/2000/svg"
   version="1.1"
   id="svg4488"
   viewBox="0 0 112.68554 112.68556"
   height="31.802368mm"
   width="31.802362mm">
  <defs
     id="defs4490" />
  <metadata
     id="metadata4493">
    <rdf:RDF>
      <cc:Work
         rdf:about="">
        <dc:format>image/svg+xml</dc:format>
        <dc:type
           rdf:resource="http://purl.org/dc/dcmitype/StillImage" />
        <dc:title></dc:title>
      </cc:Work>
    </rdf:RDF>
  </metadata>
  <g
     transform="translate(30.628499,-87.44799)"
     id="layer1">
    <g
       transform="matrix(1.3417614,0,0,1.3417614,-1003.2944,-1272.9096)"
       id="g4353">
      <path
         id="path4230"
         style="fill:#e7a213;fill-opacity:1;fill-rule:nonzero;stroke:none"
         d="m 779.38038,1019.0306 c -1.27688,-3.93 -5.49713,-6.08 -9.42676,-4.8025 -3.92974,1.2763 -6.08012,5.4963 -4.80324,9.4263 l 19.34475,59.5175 c 1.32812,3.6712 5.2935,5.7337 9.10012,4.6375 3.97062,-1.1425 6.39113,-5.36 5.124,-9.26 -0.0484,-0.1475 -19.33887,-59.5188 -19.33887,-59.5188" />
      <path
         id="path4232"
         style="fill:#4dc088;fill-opacity:1;fill-rule:nonzero;stroke:none"
         d="m 749.40625,1028.7706 c -1.27688,-3.93 -5.4975,-6.08 -9.42675,-4.8037 -3.92969,1.2762 -6.08007,5.4975 -4.80322,9.4262 l 19.34472,59.5175 c 1.32813,3.6713 5.2935,5.7338 9.10012,4.6388 3.97063,-1.1425 6.39113,-5.36 5.12401,-9.26 -0.0484,-0.1488 -19.33888,-59.5188 -19.33888,-59.5188" />
      <path
         id="path4234"
         style="fill:#e10d63;fill-opacity:1;fill-rule:nonzero;stroke:none"
         d="m 803.729,1068.3231 c 3.92975,-1.2775 6.08012,-5.4975 4.80325,-9.4275 -1.27687,-3.9287 -5.49713,-6.08 -9.42675,-4.8025 l -59.51762,19.345 c -3.67088,1.3275 -5.73387,5.2925 -4.63817,9.1 1.14308,3.97 5.36042,6.3913 9.26029,5.1238 0.14788,-0.048 59.519,-19.3388 59.519,-19.3388" />
      <path
         id="path4236"
         style="fill:#3f2543;fill-opacity:1;fill-rule:nonzero;stroke:none"
         d="m 751.99313,1085.1331 c 3.87412,-1.2587 8.86724,-2.8812 14.22462,-4.6225 -1.25825,-3.8737 -2.88137,-8.8675 -4.622,-14.2262 l -14.22612,4.625 4.6235,14.2237" />
      <path
         id="path4238"
         style="fill:#d01e25;fill-opacity:1;fill-rule:nonzero;stroke:none"
         d="m 781.96725,1075.3931 c 5.378,-1.7475 10.376,-3.3712 14.22462,-4.6212 -1.25874,-3.875 -2.88175,-8.87 -4.62299,-14.2288 l -14.22613,4.6238 4.6245,14.2262" />
      <path
         id="path4240"
         style="fill:#7cd3dc;fill-opacity:1;fill-rule:nonzero;stroke:none"
         d="m 793.98975,1038.3494 c 3.92975,-1.2775 6.08013,-5.4975 4.80325,-9.4275 -1.27688,-3.93 -5.49712,-6.08 -9.42675,-4.8025 l -59.51712,19.3437 c -3.67139,1.3288 -5.73389,5.2938 -4.63818,9.1 1.14257,3.9713 5.35986,6.3925 9.25976,5.125 0.14795,-0.049 59.51904,-19.3387 59.51904,-19.3387" />
      <path
         id="path4242"
         style="fill:#36987b;fill-opacity:1;fill-rule:nonzero;stroke:none"
         d="m 742.251,1055.1594 c 3.874,-1.2588 8.86863,-2.8813 14.2275,-4.6225 -1.7475,-5.3775 -3.3715,-10.3775 -4.622,-14.2263 l -14.229,4.625 4.6235,14.2238" />
      <path
         id="path4244"
         style="fill:#5a872d;fill-opacity:1;fill-rule:nonzero;stroke:none"
         d="m 772.22513,1045.4206 c 5.37887,-1.7475 10.37837,-3.3725 14.22749,-4.6225 -1.74749,-5.38 -3.37199,-10.38 -4.62299,-14.23 l -14.229,4.625 4.6245,14.2275" />
    </g>
  </g>
</svg>
