<?xml version="1.0" encoding="UTF-8" standalone="no"?>
<svg
   xmlns:dc="http://purl.org/dc/elements/1.1/"
   xmlns:cc="http://creativecommons.org/ns#"
   xmlns:rdf="http://www.w3.org/1999/02/22-rdf-syntax-ns#"
   xmlns:svg="http://www.w3.org/2000/svg"
   xmlns="http://www.w3.org/2000/svg"
   version="1.1"
   id="svg4165"
   viewBox="0 0 27.388901 19"
   height="19"
   width="27.388901">
  <defs
     id="defs4167" />
  <metadata
     id="metadata4170">
    <rdf:RDF>
      <cc:Work
         rdf:about="">
        <dc:format>image/svg+xml</dc:format>
        <dc:type
           rdf:resource="http://purl.org/dc/dcmitype/StillImage" />
        <dc:title></dc:title>
      </cc:Work>
    </rdf:RDF>
  </metadata>
  <g
     transform="translate(-148.51738,-104.43364)"
     id="layer1">
    <g
       style="fill:#53c0d6"
       transform="matrix(0.05349394,0,0,0.05349394,148.51738,100.23922)"
       id="g4815">
      <g
         style="fill:#53c0d6"
         id="g4773">
        <path
           style="fill:#53c0d6"
           d="M 314.262,288.662 C 301.903,370.759 240.11,414.896 160.662,414.896 71.503,414.897 0,345.159 0,256 0,166.841 71.503,97.103 160.662,97.103 c 43.255,0 81.214,12.359 108.579,38.841 l -46.786,46.786 c -15.007,-15.89 -37.076,-23.834 -61.793,-23.834 -52.966,0 -98.869,44.138 -98.869,97.103 0,52.965 45.903,97.103 98.869,97.103 44.138,0 77.683,-28.248 87.393,-70.621 l -89.159,0 0,-61.791 155.366,0 c 1.766,10.593 2.648,23.834 2.648,35.31 0,11.476 -0.882,22.069 -2.648,32.662"
           id="path4775" />
        <polygon
           style="fill:#53c0d6"
           points="414.897,317.793 414.897,264.828 361.931,264.828 361.931,220.69 414.897,220.69 414.897,167.724 459.034,167.724 459.034,220.69 512,220.69 512,264.828 459.034,264.828 459.034,317.793 "
           id="polygon4777" />
      </g>
      <g
         style="fill:#53c0d6"
         id="g4779" />
      <g
         style="fill:#53c0d6"
         id="g4781" />
      <g
         style="fill:#53c0d6"
         id="g4783" />
      <g
         style="fill:#53c0d6"
         id="g4785" />
      <g
         style="fill:#53c0d6"
         id="g4787" />
      <g
         style="fill:#53c0d6"
         id="g4789" />
      <g
         style="fill:#53c0d6"
         id="g4791" />
      <g
         style="fill:#53c0d6"
         id="g4793" />
      <g
         style="fill:#53c0d6"
         id="g4795" />
      <g
         style="fill:#53c0d6"
         id="g4797" />
      <g
         style="fill:#53c0d6"
         id="g4799" />
      <g
         style="fill:#53c0d6"
         id="g4801" />
      <g
         style="fill:#53c0d6"
         id="g4803" />
      <g
         style="fill:#53c0d6"
         id="g4805" />
      <g
         style="fill:#53c0d6"
         id="g4807" />
    </g>
  </g>
</svg>
