<?xml version="1.0" encoding="UTF-8" standalone="no"?>
<svg
   xmlns:dc="http://purl.org/dc/elements/1.1/"
   xmlns:cc="http://creativecommons.org/ns#"
   xmlns:rdf="http://www.w3.org/1999/02/22-rdf-syntax-ns#"
   xmlns:svg="http://www.w3.org/2000/svg"
   xmlns="http://www.w3.org/2000/svg"
   version="1.1"
   id="svg4165"
   viewBox="0 0 18.66448 19"
   height="19"
   width="18.66448">
  <defs
     id="defs4167" />
  <metadata
     id="metadata4170">
    <rdf:RDF>
      <cc:Work
         rdf:about="">
        <dc:format>image/svg+xml</dc:format>
        <dc:type
           rdf:resource="http://purl.org/dc/dcmitype/StillImage" />
        <dc:title></dc:title>
      </cc:Work>
    </rdf:RDF>
  </metadata>
  <g
     transform="translate(-152.87959,-105.43364)"
     id="layer1">
    <path
       id="path3459"
       d="m 169.64366,111.48836 c 0,-0.17492 -0.003,-0.34825 -0.011,-0.52 0.7485,-0.55783 1.3977,-1.25581 1.91141,-2.05506 -0.6871,0.30888 -1.42461,0.51546 -2.1998,0.6019 0.79105,-0.48692 1.39771,-1.26533 1.6845,-2.19974 -0.74034,0.44908 -1.55999,0.77054 -2.43141,0.93758 -0.69803,-0.79416 -1.69391,-1.29999 -2.79542,-1.31892 -2.11455,-0.0346 -3.82918,1.75225 -3.82918,3.9912 0,0.31829 0.0331,0.62705 0.0992,0.92495 -3.18457,-0.20483 -6.00661,-1.86254 -7.89457,-4.36165 -0.32934,0.5988 -0.51842,1.29841 -0.51842,2.04828 0,1.41839 0.67599,2.67873 1.7033,3.42246 -0.62876,-0.0283 -1.21803,-0.21898 -1.73486,-0.53103 0,0.0173 0,0.0346 0,0.052 0,1.98234 1.3205,3.64338 3.07298,4.03084 -0.32146,0.0914 -0.66025,0.13867 -1.0085,0.13713 -0.24737,-0.002 -0.48691,-0.0284 -0.72013,-0.0788 0.48692,1.62463 1.90197,2.81117 3.57712,2.85037 -1.31132,1.087 -2.96252,1.73644 -4.7556,1.73174 -0.3089,0 -0.61455,-0.0205 -0.91369,-0.0584 1.69554,1.16291 3.70796,1.84044 5.87123,1.84044 7.04207,0.002 10.89335,-6.12783 10.89335,-11.4462"
       style="fill:#53c0d6" />
  </g>
</svg>
